<?xml version="1.0" standalone="no"?><svg xmlns="http://www.w3.org/2000/svg" viewBox="0 0 1440 320"><path fill="#273036" fill-opacity="1" d="M0,256L0,192L90,192L90,32L180,32L180,64L270,64L270,224L360,224L360,96L450,96L450,192L540,192L540,256L630,256L630,256L720,256L720,96L810,96L810,96L900,96L900,160L990,160L990,64L1080,64L1080,128L1170,128L1170,192L1260,192L1260,192L1350,192L1350,320L1440,320L1440,0L1350,0L1350,0L1260,0L1260,0L1170,0L1170,0L1080,0L1080,0L990,0L990,0L900,0L900,0L810,0L810,0L720,0L720,0L630,0L630,0L540,0L540,0L450,0L450,0L360,0L360,0L270,0L270,0L180,0L180,0L90,0L90,0L0,0L0,0Z"></path></svg>